<?xml version="1.0" encoding="UTF-8"?>
<svg width="686px" height="332px" viewBox="0 0 686 332" version="1.1" xmlns="http://www.w3.org/2000/svg" xmlns:xlink="http://www.w3.org/1999/xlink">
    <!-- Generator: Sketch 46.1 (44463) - http://www.bohemiancoding.com/sketch -->
    <title>deco</title>
    <desc>Created with Sketch.</desc>
    <defs>
        <linearGradient x1="50%" y1="9.12908207%" x2="50%" y2="127.764253%" id="linearGradient-1">
            <stop stop-color="#FBDF77" offset="0%"></stop>
            <stop stop-color="#F5BB42" offset="100%"></stop>
        </linearGradient>
    </defs>
    <g id="✅-overview-approved" stroke="none" stroke-width="1" fill="none" fill-rule="evenodd">
        <g id="overview_03d" transform="translate(-902.000000, -3473.000000)" fill="url(#linearGradient-1)">
            <g id="CTA" transform="translate(-4.000000, 3441.000000)">
                <path d="M906,173.607752 C997.632997,82.2862013 1119.4512,32 1249,32 C1378.5866,32 1500.3859,82.2862013 1592,173.607752 L1523.40756,242 C1450.12762,168.935223 1352.67306,128.710031 1249,128.710031 C1145.36474,128.710031 1047.91018,168.935223 974.611341,242 L906,173.607752 M1210,308.490518 C1210,316.322911 1208.51571,323.605331 1205.54712,330.394669 C1202.56021,337.184008 1198.58377,343.04408 1193.63613,347.974885 C1188.65183,352.905689 1182.71466,356.812404 1175.75131,359.695028 C1168.78796,362.558688 1161.53141,364 1154,364 C1138.13089,364 1124.8089,358.55715 1114.08901,347.652486 C1103.35079,336.766786 1098,323.719118 1098,308.490518 C1098,301.094311 1099.37435,294.001538 1102.17801,287.212199 C1104.94503,280.441825 1108.93979,274.581753 1114.08901,269.669913 C1119.23822,264.720144 1125.19372,260.718606 1131.97382,257.627371 C1138.69895,254.536135 1146.04712,253 1154,253 C1161.53141,253 1168.78796,254.460277 1175.75131,257.323936 C1182.71466,260.206561 1188.65183,264.113275 1193.63613,269.025115 C1198.58377,273.974885 1202.56021,279.834956 1205.54712,286.605331 C1208.51571,293.394669 1210,300.696053 1210,308.490518 Z M1386,308.490518 C1386,316.322911 1384.51595,323.605331 1381.52953,330.394669 C1378.56143,337.184008 1374.58564,343.04408 1369.6388,347.974885 C1364.637,352.905689 1358.7008,356.812404 1351.73859,359.695028 C1344.7947,362.558688 1337.53934,364 1330.00916,364 C1314.12433,364 1300.80451,358.55715 1290.10469,347.652486 C1279.36823,336.766786 1274,323.719118 1274,308.490518 C1274,301.094311 1275.39244,294.001538 1278.17733,287.212199 C1280.96221,280.441825 1284.938,274.581753 1290.10469,269.669913 C1295.23475,264.720144 1301.20759,260.718606 1307.96826,257.627371 C1314.71062,254.536135 1322.05758,253 1330.00916,253 C1337.53934,253 1344.7947,254.460277 1351.73859,257.323936 C1358.7008,260.206561 1364.637,264.113275 1369.6388,269.025115 C1374.58564,273.974885 1378.56143,279.834956 1381.52953,286.605331 C1384.51595,293.394669 1386,300.696053 1386,308.490518 L1386,308.490518 Z" id="deco"></path>
            </g>
        </g>
    </g>
</svg>