<svg xmlns="http://www.w3.org/2000/svg" width="23" height="21" viewBox="0 0 23 21">
    <g fill="#C1C1C1" fill-rule="nonzero">
        <path d="M23 13h-4V0h4zM0 11.727V9.586c.012-.198.045-.393.1-.584a.79.79 0 0 1 .084-.158l3.19-7.553A2.124 2.124 0 0 1 5.293 0h9.526a2.21 2.21 0 0 1 2.179 2.157v10.611a1.807 1.807 0 0 1-.666 1.487l-6.666 6.668c-.208.021-.422.047-.624.077l-.909-.803a2.25 2.25 0 0 1-.449-1.167v-.318l1.101-4.938H2.117A2.097 2.097 0 0 1 .02 11.942C0 11.858 0 11.727 0 11.727z"/>
    </g>
</svg>
