<svg xmlns="http://www.w3.org/2000/svg" width="23" height="21" viewBox="0 0 23 21">
    <g fill="#C1C1C1" fill-rule="nonzero">
        <path d="M0 8h4v13H0zM23 9.273v2.141a2.698 2.698 0 0 1-.1.584.79.79 0 0 1-.084.158l-3.19 7.553A2.124 2.124 0 0 1 17.707 21H8.181a2.21 2.21 0 0 1-2.179-2.157V8.232a1.807 1.807 0 0 1 .666-1.487L13.334.077c.208-.021.422-.047.624-.077l.909.803c.257.339.412.743.449 1.167v.318l-1.101 4.938h6.668a2.097 2.097 0 0 1 2.096 1.832c.021.084.021.215.021.215z"/>
    </g>
</svg>
