<svg xmlns="http://www.w3.org/2000/svg" width="83" height="36" viewBox="0 0 83 36">
    <g fill="none" fill-rule="evenodd">
        <path fill="#F5BC42" d="M34.616 6.334A20.863 20.863 0 0 1 49.463.184c5.61 0 10.882 2.184 14.848 6.15l-2.97 2.97a16.685 16.685 0 0 0-11.878-4.92 16.688 16.688 0 0 0-11.877 4.92l-2.97-2.97"/>
        <path fill="#0A090B" d="M11.493 15.676c-.39-.497-.9-.891-1.53-1.184-.63-.293-1.237-.439-1.822-.439-.303 0-.608.026-.918.08-.311.053-.59.155-.838.305-.25.152-.457.347-.625.585-.17.24-.253.546-.253.918 0 .32.066.585.199.798.133.214.328.4.586.56.257.16.563.306.917.438.355.133.754.271 1.198.413.638.212 1.303.447 1.995.704.692.258 1.32.6 1.889 1.025a5.398 5.398 0 0 1 1.41 1.583c.373.629.558 1.414.558 2.354 0 1.082-.2 2.018-.598 2.807-.4.79-.936 1.44-1.61 1.955a6.907 6.907 0 0 1-2.314 1.144 9.751 9.751 0 0 1-2.687.372 11.08 11.08 0 0 1-3.91-.705C1.88 28.92.833 28.25 0 27.38l2.979-3.032c.461.568 1.07 1.042 1.823 1.424.753.381 1.503.571 2.248.571.337 0 .665-.035.985-.106.319-.07.598-.186.837-.346.24-.16.43-.372.572-.639.142-.265.213-.585.213-.957 0-.355-.09-.656-.266-.905a2.616 2.616 0 0 0-.758-.678 6.141 6.141 0 0 0-1.224-.558 61.926 61.926 0 0 0-1.663-.546 15.875 15.875 0 0 1-1.769-.692 5.904 5.904 0 0 1-1.543-1.024 4.728 4.728 0 0 1-1.09-1.516c-.275-.594-.412-1.317-.412-2.169 0-1.046.212-1.941.637-2.687a5.552 5.552 0 0 1 1.677-1.835 7.201 7.201 0 0 1 2.34-1.05 10.612 10.612 0 0 1 2.634-.333c1.065 0 2.15.195 3.26.586 1.108.389 2.079.966 2.913 1.728l-2.9 3.06M26.895 22.965c0-.426-.076-.842-.226-1.25a3.505 3.505 0 0 0-.639-1.091 3.168 3.168 0 0 0-.997-.772 2.93 2.93 0 0 0-1.33-.292c-.515 0-.967.097-1.357.292-.39.195-.718.449-.984.758-.266.31-.466.67-.599 1.078a4.016 4.016 0 0 0-.199 1.25c0 .426.066.847.199 1.264.133.417.333.785.599 1.104.266.319.594.576.984.772.39.195.842.291 1.357.291.496 0 .94-.096 1.33-.291.39-.196.723-.453.997-.772.275-.319.489-.683.639-1.091.15-.408.226-.825.226-1.25zM26.735 36v-7.847h-.052c-.427.568-.998 1.015-1.716 1.342a5.476 5.476 0 0 1-2.302.493c-1.011 0-1.906-.196-2.687-.585a5.957 5.957 0 0 1-1.968-1.557 6.967 6.967 0 0 1-1.224-2.248 8.35 8.35 0 0 1-.426-2.66c0-.922.147-1.804.44-2.647a6.89 6.89 0 0 1 1.25-2.221 5.921 5.921 0 0 1 1.968-1.517c.772-.372 1.636-.558 2.594-.558.993 0 1.85.2 2.568.599.718.398 1.28.864 1.688 1.396h.08v-1.623h4.124V36h-4.336zM43.23 29.616V27.78h-.054c-.16.3-.369.585-.625.85a3.955 3.955 0 0 1-.904.692 5.543 5.543 0 0 1-1.145.478 4.581 4.581 0 0 1-1.317.187c-.886 0-1.635-.16-2.247-.479a4.345 4.345 0 0 1-1.49-1.237 4.879 4.879 0 0 1-.825-1.73 7.866 7.866 0 0 1-.252-1.981v-8.194h4.389v7.183c0 .372.028.727.08 1.063.053.338.155.64.306.906.15.266.35.475.598.625.249.15.577.225.985.225.762 0 1.344-.282 1.742-.85.4-.568.598-1.233.598-1.995v-7.157h4.364v13.249H43.23"/>
        <path fill="#F5BC42" d="M47.814 12.137c0 .338-.067.652-.2.945-.132.293-.31.546-.53.758a2.608 2.608 0 0 1-1.77.691c-.71 0-1.304-.234-1.783-.705a2.28 2.28 0 0 1-.718-1.69c0-.318.061-.624.187-.917.123-.292.301-.545.531-.757a2.85 2.85 0 0 1 .799-.52c.3-.133.628-.2.983-.2a2.609 2.609 0 0 1 1.77.692c.221.214.399.467.532.759.132.293.199.608.199.944zm7.76 0c0 .338-.067.652-.2.945-.133.293-.31.546-.531.758a2.6 2.6 0 0 1-1.77.691c-.71 0-1.304-.234-1.782-.705a2.28 2.28 0 0 1-.72-1.69c0-.318.063-.624.187-.917a2.17 2.17 0 0 1 .533-.757c.23-.213.496-.386.798-.52.3-.133.629-.2.984-.2a2.601 2.601 0 0 1 1.77.692c.22.214.398.467.53.759.134.293.2.608.2.944z"/>
        <path fill="#0A090B" d="M67.41 29.616V22.38c0-.373-.03-.728-.092-1.065a2.918 2.918 0 0 0-.306-.89 1.597 1.597 0 0 0-.598-.613c-.257-.15-.581-.226-.97-.226-.392 0-.732.076-1.026.226a2.07 2.07 0 0 0-.73.625 2.825 2.825 0 0 0-.44.918 3.956 3.956 0 0 0-.147 1.078v7.183h-4.388v-13.25h4.229v1.837h.053c.16-.284.367-.563.625-.838.257-.275.559-.51.905-.705a5.652 5.652 0 0 1 1.13-.479 4.45 4.45 0 0 1 1.303-.186c.887 0 1.642.16 2.262.48.62.318 1.122.73 1.504 1.235.38.506.656 1.088.824 1.743.168.657.252 1.312.252 1.969v8.194h-4.39M79.835 19.613v5.074c0 .623.12 1.09.36 1.402.238.312.668.468 1.29.468.212 0 .439-.018.678-.054a2.28 2.28 0 0 0 .599-.16l.053 3.193a7.357 7.357 0 0 1-1.145.28c-.46.079-.922.119-1.383.119-.887 0-1.631-.111-2.234-.333-.603-.223-1.087-.543-1.45-.96a3.77 3.77 0 0 1-.785-1.495 7.284 7.284 0 0 1-.24-1.933v-5.601H73.45v-3.246h2.103v-3.485h4.282v3.485h3.113v3.246h-3.113M50.892 29.615h4.361V16.367h-4.361z"/>
    </g>
</svg>
