<?xml version="1.0" encoding="UTF-8"?>
<svg width="17px" height="19px" viewBox="0 0 17 19" version="1.1" xmlns="http://www.w3.org/2000/svg" xmlns:xlink="http://www.w3.org/1999/xlink">
    <!-- Generator: Sketch 45.1 (43504) - http://www.bohemiancoding.com/sketch -->
    <title>search</title>
    <desc>Created with Sketch.</desc>
    <defs></defs>
    <g id="Page-1" stroke="none" stroke-width="1" fill="none" fill-rule="evenodd">
        <g id="Overview" transform="translate(-955.000000, -15.000000)" fill="#5F5F5F">
            <g id="header" transform="translate(0.000000, 7.000000)">
                <path d="M971.825024,25.6837317 L966.896268,20.5571951 C968.153439,19.2954634 968.932537,17.5577317 968.932537,15.6417073 C968.932537,11.7997073 965.806195,8.67543902 961.966268,8.67543902 C958.124268,8.67543902 955,11.7997073 955,15.6417073 C955,19.4820488 958.124268,22.6079756 961.966268,22.6079756 C963.652171,22.6079756 965.199171,22.0038537 966.405756,21.0045854 L971.345707,26.143561 C971.41039,26.211561 971.497878,26.2439024 971.585366,26.2439024 C971.667878,26.2439024 971.75039,26.2132195 971.815488,26.1518537 C971.946512,26.0253902 971.951488,25.8147561 971.825024,25.6837317 Z M961.966268,21.9437317 C958.49039,21.9437317 955.664244,19.1159268 955.664244,15.6417073 C955.664244,12.1658293 958.49039,9.33968293 961.966268,9.33968293 C965.440488,9.33968293 968.268293,12.1658293 968.268293,15.6417073 C968.268293,19.1159268 965.440488,21.9437317 961.966268,21.9437317 Z" id="search"></path>
            </g>
        </g>
    </g>
</svg>