<svg xmlns="http://www.w3.org/2000/svg" width="561" height="200" viewBox="0 0 561 200">
    <defs>
        <linearGradient id="a" x1="50%" x2="50%" y1="9.129%" y2="127.764%">
            <stop offset="0%" stop-color="#FBDF77"/>
            <stop offset="100%" stop-color="#F5BB42"/>
        </linearGradient>
    </defs>
    <path fill="url(#a)" fill-rule="evenodd" d="M.6 115.8C75.453 41.122 174.963 0 280.788 0c105.856 0 205.35 41.122 280.187 115.8l-56.031 55.928c-59.86-59.749-139.469-92.643-224.156-92.643-84.657 0-164.265 32.894-224.141 92.643L.6 115.8m248.051 110.15c0 6.378-1.21 12.307-3.633 17.836-2.437 5.528-5.682 10.3-9.719 14.315-4.067 4.015-8.911 7.196-14.593 9.543a46.334 46.334 0 0 1-17.748 3.505c-12.949 0-23.819-4.432-32.566-13.31-8.762-8.865-13.128-19.489-13.128-31.889 0-6.022 1.121-11.798 3.41-17.326 2.257-5.513 5.516-10.285 9.718-14.284 4.202-4.03 9.061-7.289 14.593-9.806 5.488-2.517 11.484-3.768 17.973-3.768 6.145 0 12.066 1.19 17.748 3.521 5.682 2.347 10.526 5.528 14.593 9.528 4.037 4.03 7.282 8.802 9.72 14.315 2.421 5.528 3.632 11.473 3.632 17.82zm143.61 0c0 6.378-1.212 12.307-3.649 17.836-2.421 5.528-5.665 10.3-9.702 14.315-4.081 4.015-8.925 7.196-14.606 9.543a46.19 46.19 0 0 1-17.73 3.505c-12.961 0-23.83-4.432-32.56-13.31-8.761-8.865-13.141-19.489-13.141-31.889 0-6.022 1.136-11.798 3.408-17.326 2.273-5.513 5.517-10.285 9.733-14.284 4.185-4.03 9.06-7.289 14.575-9.806 5.502-2.517 11.497-3.768 17.985-3.768 6.144 0 12.064 1.19 17.73 3.521 5.681 2.347 10.525 5.528 14.606 9.528 4.037 4.03 7.28 8.802 9.702 14.315 2.437 5.528 3.648 11.473 3.648 17.82z" transform="rotate(-180 280.5 124)"/>
</svg>
